<mxfile host="app.diagrams.net" modified="2022-01-13T12:44:37.856Z" agent="5.0 (Macintosh; Intel Mac OS X 10_15_7) AppleWebKit/537.36 (KHTML, like Gecko) Chrome/97.0.4692.71 Safari/537.36" etag="56Sg_PLFaHGnRoMcwymG" version="16.2.6" type="github">
  <diagram name="Page-1" id="c7488fd3-1785-93aa-aadb-54a6760d102a">
    <mxGraphModel dx="1623" dy="1011" grid="1" gridSize="10" guides="1" tooltips="1" connect="1" arrows="1" fold="1" page="1" pageScale="1" pageWidth="1100" pageHeight="850" background="none" math="0" shadow="0">
      <root>
        <mxCell id="0" />
        <mxCell id="1" parent="0" />
        <mxCell id="RAAd8qCdAdsrlPcri4n8-2" value="Master Branch" style="rounded=1;whiteSpace=wrap;html=1;" vertex="1" parent="1">
          <mxGeometry x="58" y="170" width="120" height="60" as="geometry" />
        </mxCell>
        <mxCell id="RAAd8qCdAdsrlPcri4n8-3" value="Staging Branch" style="rounded=1;whiteSpace=wrap;html=1;" vertex="1" parent="1">
          <mxGeometry x="188" y="310" width="120" height="60" as="geometry" />
        </mxCell>
        <mxCell id="RAAd8qCdAdsrlPcri4n8-4" value="" style="endArrow=classic;html=1;rounded=0;entryX=0;entryY=0.5;entryDx=0;entryDy=0;exitX=0.5;exitY=1;exitDx=0;exitDy=0;" edge="1" parent="1" source="RAAd8qCdAdsrlPcri4n8-2" target="RAAd8qCdAdsrlPcri4n8-3">
          <mxGeometry width="50" height="50" relative="1" as="geometry">
            <mxPoint x="68" y="170" as="sourcePoint" />
            <mxPoint x="118" y="120" as="targetPoint" />
            <Array as="points">
              <mxPoint x="118" y="340" />
            </Array>
          </mxGeometry>
        </mxCell>
        <mxCell id="RAAd8qCdAdsrlPcri4n8-5" value="Feature/Bugfix/Hotfix Branch" style="rounded=1;whiteSpace=wrap;html=1;" vertex="1" parent="1">
          <mxGeometry x="188" y="420" width="120" height="60" as="geometry" />
        </mxCell>
        <mxCell id="RAAd8qCdAdsrlPcri4n8-6" value="" style="endArrow=classic;html=1;rounded=0;exitX=0.5;exitY=1;exitDx=0;exitDy=0;entryX=0.5;entryY=0;entryDx=0;entryDy=0;" edge="1" parent="1" source="RAAd8qCdAdsrlPcri4n8-3" target="RAAd8qCdAdsrlPcri4n8-5">
          <mxGeometry width="50" height="50" relative="1" as="geometry">
            <mxPoint x="248" y="420" as="sourcePoint" />
            <mxPoint x="298" y="370" as="targetPoint" />
          </mxGeometry>
        </mxCell>
        <mxCell id="RAAd8qCdAdsrlPcri4n8-7" value="PR" style="rhombus;whiteSpace=wrap;html=1;" vertex="1" parent="1">
          <mxGeometry x="468" y="410" width="80" height="80" as="geometry" />
        </mxCell>
        <mxCell id="RAAd8qCdAdsrlPcri4n8-8" value="" style="endArrow=classic;html=1;rounded=0;exitX=1;exitY=0.5;exitDx=0;exitDy=0;entryX=0;entryY=0.5;entryDx=0;entryDy=0;" edge="1" parent="1" source="RAAd8qCdAdsrlPcri4n8-5" target="RAAd8qCdAdsrlPcri4n8-7">
          <mxGeometry width="50" height="50" relative="1" as="geometry">
            <mxPoint x="378" y="500" as="sourcePoint" />
            <mxPoint x="428" y="450" as="targetPoint" />
          </mxGeometry>
        </mxCell>
        <mxCell id="RAAd8qCdAdsrlPcri4n8-10" value="" style="endArrow=classic;html=1;rounded=0;exitX=0.5;exitY=1;exitDx=0;exitDy=0;entryX=0.5;entryY=1;entryDx=0;entryDy=0;" edge="1" parent="1" source="RAAd8qCdAdsrlPcri4n8-7" target="RAAd8qCdAdsrlPcri4n8-5">
          <mxGeometry width="50" height="50" relative="1" as="geometry">
            <mxPoint x="488" y="490" as="sourcePoint" />
            <mxPoint x="328" y="560" as="targetPoint" />
            <Array as="points">
              <mxPoint x="508" y="550" />
              <mxPoint x="248" y="550" />
            </Array>
          </mxGeometry>
        </mxCell>
        <mxCell id="RAAd8qCdAdsrlPcri4n8-11" value="" style="endArrow=classic;html=1;rounded=0;exitX=0.5;exitY=0;exitDx=0;exitDy=0;entryX=1;entryY=0.5;entryDx=0;entryDy=0;" edge="1" parent="1" source="RAAd8qCdAdsrlPcri4n8-7" target="RAAd8qCdAdsrlPcri4n8-3">
          <mxGeometry width="50" height="50" relative="1" as="geometry">
            <mxPoint x="448" y="400" as="sourcePoint" />
            <mxPoint x="498" y="350" as="targetPoint" />
            <Array as="points">
              <mxPoint x="508" y="340" />
            </Array>
          </mxGeometry>
        </mxCell>
        <mxCell id="RAAd8qCdAdsrlPcri4n8-12" value="No&lt;br&gt;" style="text;html=1;align=center;verticalAlign=middle;resizable=0;points=[];autosize=1;strokeColor=none;fillColor=none;" vertex="1" parent="1">
          <mxGeometry x="518" y="490" width="30" height="20" as="geometry" />
        </mxCell>
        <mxCell id="RAAd8qCdAdsrlPcri4n8-13" value="Yes" style="text;html=1;align=center;verticalAlign=middle;resizable=0;points=[];autosize=1;strokeColor=none;fillColor=none;" vertex="1" parent="1">
          <mxGeometry x="513" y="390" width="40" height="20" as="geometry" />
        </mxCell>
        <mxCell id="RAAd8qCdAdsrlPcri4n8-14" value="Master" style="shape=cylinder3;whiteSpace=wrap;html=1;boundedLbl=1;backgroundOutline=1;size=15;" vertex="1" parent="1">
          <mxGeometry x="548" y="150" width="60" height="80" as="geometry" />
        </mxCell>
        <mxCell id="RAAd8qCdAdsrlPcri4n8-15" value="Staging" style="shape=cylinder3;whiteSpace=wrap;html=1;boundedLbl=1;backgroundOutline=1;size=15;" vertex="1" parent="1">
          <mxGeometry x="548" y="250" width="60" height="80" as="geometry" />
        </mxCell>
        <mxCell id="RAAd8qCdAdsrlPcri4n8-16" value="QA" style="shape=cylinder3;whiteSpace=wrap;html=1;boundedLbl=1;backgroundOutline=1;size=15;" vertex="1" parent="1">
          <mxGeometry x="548" y="340" width="60" height="80" as="geometry" />
        </mxCell>
        <mxCell id="RAAd8qCdAdsrlPcri4n8-17" value="Dev" style="shape=cylinder3;whiteSpace=wrap;html=1;boundedLbl=1;backgroundOutline=1;size=15;" vertex="1" parent="1">
          <mxGeometry x="548" y="500" width="60" height="80" as="geometry" />
        </mxCell>
        <mxCell id="RAAd8qCdAdsrlPcri4n8-18" value="" style="endArrow=classic;startArrow=classic;html=1;rounded=0;entryX=0;entryY=0;entryDx=0;entryDy=52.5;entryPerimeter=0;exitX=1;exitY=0.5;exitDx=0;exitDy=0;" edge="1" parent="1" source="RAAd8qCdAdsrlPcri4n8-2" target="RAAd8qCdAdsrlPcri4n8-14">
          <mxGeometry width="50" height="50" relative="1" as="geometry">
            <mxPoint x="278" y="180" as="sourcePoint" />
            <mxPoint x="328" y="130" as="targetPoint" />
          </mxGeometry>
        </mxCell>
        <mxCell id="RAAd8qCdAdsrlPcri4n8-19" value="" style="endArrow=classic;startArrow=classic;html=1;rounded=0;exitX=0.5;exitY=0;exitDx=0;exitDy=0;entryX=0;entryY=0;entryDx=0;entryDy=52.5;entryPerimeter=0;" edge="1" parent="1" source="RAAd8qCdAdsrlPcri4n8-3" target="RAAd8qCdAdsrlPcri4n8-15">
          <mxGeometry width="50" height="50" relative="1" as="geometry">
            <mxPoint x="368" y="280" as="sourcePoint" />
            <mxPoint x="418" y="230" as="targetPoint" />
            <Array as="points">
              <mxPoint x="248" y="230" />
              <mxPoint x="548" y="230" />
              <mxPoint x="548" y="303" />
            </Array>
          </mxGeometry>
        </mxCell>
        <mxCell id="RAAd8qCdAdsrlPcri4n8-20" value="" style="endArrow=classic;html=1;rounded=0;entryX=0.875;entryY=0.5;entryDx=0;entryDy=0;entryPerimeter=0;" edge="1" parent="1" target="RAAd8qCdAdsrlPcri4n8-21">
          <mxGeometry width="50" height="50" relative="1" as="geometry">
            <mxPoint x="188" y="450" as="sourcePoint" />
            <mxPoint x="83" y="450" as="targetPoint" />
          </mxGeometry>
        </mxCell>
        <mxCell id="RAAd8qCdAdsrlPcri4n8-21" value="Storybook&lt;br&gt;vercel deployment&lt;br&gt;&lt;br&gt;" style="ellipse;shape=cloud;whiteSpace=wrap;html=1;" vertex="1" parent="1">
          <mxGeometry x="23" y="420" width="140" height="90" as="geometry" />
        </mxCell>
        <mxCell id="RAAd8qCdAdsrlPcri4n8-22" value="Content Models" style="rounded=0;whiteSpace=wrap;html=1;" vertex="1" parent="1">
          <mxGeometry x="698" y="510" width="120" height="60" as="geometry" />
        </mxCell>
        <mxCell id="RAAd8qCdAdsrlPcri4n8-23" value="" style="endArrow=classic;html=1;rounded=0;exitX=1;exitY=0.5;exitDx=0;exitDy=0;exitPerimeter=0;entryX=0;entryY=0.5;entryDx=0;entryDy=0;" edge="1" parent="1" source="RAAd8qCdAdsrlPcri4n8-17" target="RAAd8qCdAdsrlPcri4n8-22">
          <mxGeometry width="50" height="50" relative="1" as="geometry">
            <mxPoint x="618" y="540" as="sourcePoint" />
            <mxPoint x="668" y="490" as="targetPoint" />
          </mxGeometry>
        </mxCell>
        <mxCell id="RAAd8qCdAdsrlPcri4n8-24" value="Code/Review" style="rhombus;whiteSpace=wrap;html=1;" vertex="1" parent="1">
          <mxGeometry x="898" y="500" width="80" height="80" as="geometry" />
        </mxCell>
        <mxCell id="RAAd8qCdAdsrlPcri4n8-25" value="" style="endArrow=classic;html=1;rounded=0;exitX=1;exitY=0.5;exitDx=0;exitDy=0;entryX=0;entryY=0.5;entryDx=0;entryDy=0;" edge="1" parent="1" source="RAAd8qCdAdsrlPcri4n8-22" target="RAAd8qCdAdsrlPcri4n8-24">
          <mxGeometry width="50" height="50" relative="1" as="geometry">
            <mxPoint x="878" y="450" as="sourcePoint" />
            <mxPoint x="928" y="400" as="targetPoint" />
          </mxGeometry>
        </mxCell>
        <mxCell id="RAAd8qCdAdsrlPcri4n8-26" value="" style="endArrow=classic;html=1;rounded=0;exitX=0.5;exitY=1;exitDx=0;exitDy=0;entryX=0.45;entryY=1.033;entryDx=0;entryDy=0;entryPerimeter=0;" edge="1" parent="1" source="RAAd8qCdAdsrlPcri4n8-24" target="RAAd8qCdAdsrlPcri4n8-22">
          <mxGeometry width="50" height="50" relative="1" as="geometry">
            <mxPoint x="888" y="680" as="sourcePoint" />
            <mxPoint x="938" y="630" as="targetPoint" />
            <Array as="points">
              <mxPoint x="938" y="630" />
              <mxPoint x="752" y="630" />
            </Array>
          </mxGeometry>
        </mxCell>
        <mxCell id="RAAd8qCdAdsrlPcri4n8-28" value="Test Content Model" style="rounded=0;whiteSpace=wrap;html=1;" vertex="1" parent="1">
          <mxGeometry x="698" y="350" width="120" height="60" as="geometry" />
        </mxCell>
        <mxCell id="RAAd8qCdAdsrlPcri4n8-29" value="" style="endArrow=classic;html=1;rounded=0;exitX=1;exitY=0.5;exitDx=0;exitDy=0;exitPerimeter=0;entryX=0;entryY=0.5;entryDx=0;entryDy=0;" edge="1" parent="1" source="RAAd8qCdAdsrlPcri4n8-16" target="RAAd8qCdAdsrlPcri4n8-28">
          <mxGeometry width="50" height="50" relative="1" as="geometry">
            <mxPoint x="778" y="230" as="sourcePoint" />
            <mxPoint x="828" y="180" as="targetPoint" />
          </mxGeometry>
        </mxCell>
        <mxCell id="RAAd8qCdAdsrlPcri4n8-30" value="QA Review" style="rhombus;whiteSpace=wrap;html=1;" vertex="1" parent="1">
          <mxGeometry x="978" y="340" width="80" height="80" as="geometry" />
        </mxCell>
        <mxCell id="RAAd8qCdAdsrlPcri4n8-31" value="" style="endArrow=classic;html=1;rounded=0;exitX=1;exitY=0.5;exitDx=0;exitDy=0;entryX=0;entryY=0.5;entryDx=0;entryDy=0;" edge="1" parent="1" source="RAAd8qCdAdsrlPcri4n8-28" target="RAAd8qCdAdsrlPcri4n8-30">
          <mxGeometry width="50" height="50" relative="1" as="geometry">
            <mxPoint x="888" y="340" as="sourcePoint" />
            <mxPoint x="938" y="290" as="targetPoint" />
          </mxGeometry>
        </mxCell>
        <mxCell id="RAAd8qCdAdsrlPcri4n8-32" value="" style="endArrow=classic;html=1;rounded=0;exitX=0.5;exitY=1;exitDx=0;exitDy=0;entryX=0.25;entryY=1;entryDx=0;entryDy=0;" edge="1" parent="1" source="RAAd8qCdAdsrlPcri4n8-30" target="RAAd8qCdAdsrlPcri4n8-22">
          <mxGeometry width="50" height="50" relative="1" as="geometry">
            <mxPoint x="1028" y="510" as="sourcePoint" />
            <mxPoint x="1078" y="460" as="targetPoint" />
            <Array as="points">
              <mxPoint x="1018" y="620" />
              <mxPoint x="728" y="620" />
            </Array>
          </mxGeometry>
        </mxCell>
        <mxCell id="RAAd8qCdAdsrlPcri4n8-33" value="" style="endArrow=classic;html=1;rounded=0;exitX=0.5;exitY=0;exitDx=0;exitDy=0;entryX=1;entryY=0.5;entryDx=0;entryDy=0;entryPerimeter=0;" edge="1" parent="1" source="RAAd8qCdAdsrlPcri4n8-30" target="RAAd8qCdAdsrlPcri4n8-34">
          <mxGeometry width="50" height="50" relative="1" as="geometry">
            <mxPoint x="868" y="300" as="sourcePoint" />
            <mxPoint x="608" y="310" as="targetPoint" />
            <Array as="points">
              <mxPoint x="1018" y="305" />
            </Array>
          </mxGeometry>
        </mxCell>
        <mxCell id="RAAd8qCdAdsrlPcri4n8-34" value="QA-content-models.json" style="whiteSpace=wrap;html=1;shape=mxgraph.basic.document" vertex="1" parent="1">
          <mxGeometry x="748" y="270" width="70" height="70" as="geometry" />
        </mxCell>
        <mxCell id="RAAd8qCdAdsrlPcri4n8-35" value="" style="endArrow=classic;html=1;rounded=0;exitX=0;exitY=0.5;exitDx=0;exitDy=0;exitPerimeter=0;entryX=1;entryY=0;entryDx=0;entryDy=52.5;entryPerimeter=0;" edge="1" parent="1" source="RAAd8qCdAdsrlPcri4n8-34" target="RAAd8qCdAdsrlPcri4n8-15">
          <mxGeometry width="50" height="50" relative="1" as="geometry">
            <mxPoint x="648" y="270" as="sourcePoint" />
            <mxPoint x="698" y="220" as="targetPoint" />
          </mxGeometry>
        </mxCell>
        <mxCell id="RAAd8qCdAdsrlPcri4n8-36" value="QA Staging Review" style="rhombus;whiteSpace=wrap;html=1;" vertex="1" parent="1">
          <mxGeometry x="868" y="210" width="80" height="80" as="geometry" />
        </mxCell>
        <mxCell id="RAAd8qCdAdsrlPcri4n8-37" value="" style="endArrow=classic;html=1;rounded=0;exitX=0.855;exitY=0;exitDx=0;exitDy=4.35;exitPerimeter=0;" edge="1" parent="1" source="RAAd8qCdAdsrlPcri4n8-15" target="RAAd8qCdAdsrlPcri4n8-36">
          <mxGeometry width="50" height="50" relative="1" as="geometry">
            <mxPoint x="748" y="230" as="sourcePoint" />
            <mxPoint x="798" y="180" as="targetPoint" />
            <Array as="points">
              <mxPoint x="638" y="250" />
            </Array>
          </mxGeometry>
        </mxCell>
        <mxCell id="RAAd8qCdAdsrlPcri4n8-40" value="" style="endArrow=classic;html=1;rounded=0;exitX=1;exitY=0.5;exitDx=0;exitDy=0;entryX=0;entryY=1;entryDx=0;entryDy=0;" edge="1" parent="1" source="RAAd8qCdAdsrlPcri4n8-36" target="RAAd8qCdAdsrlPcri4n8-22">
          <mxGeometry width="50" height="50" relative="1" as="geometry">
            <mxPoint x="948" y="220" as="sourcePoint" />
            <mxPoint x="1058" y="220" as="targetPoint" />
            <Array as="points">
              <mxPoint x="1078" y="250" />
              <mxPoint x="1078" y="670" />
              <mxPoint x="698" y="670" />
            </Array>
          </mxGeometry>
        </mxCell>
        <mxCell id="RAAd8qCdAdsrlPcri4n8-41" value="" style="endArrow=classic;html=1;rounded=0;entryX=1;entryY=0.5;entryDx=0;entryDy=0;entryPerimeter=0;exitX=0.5;exitY=0;exitDx=0;exitDy=0;" edge="1" parent="1" source="RAAd8qCdAdsrlPcri4n8-36" target="RAAd8qCdAdsrlPcri4n8-55">
          <mxGeometry width="50" height="50" relative="1" as="geometry">
            <mxPoint x="958" y="220" as="sourcePoint" />
            <mxPoint x="1008" y="170" as="targetPoint" />
            <Array as="points">
              <mxPoint x="908" y="190" />
            </Array>
          </mxGeometry>
        </mxCell>
        <mxCell id="RAAd8qCdAdsrlPcri4n8-42" value="staging-benchling&lt;br&gt;FE / INT / BE" style="ellipse;shape=cloud;whiteSpace=wrap;html=1;" vertex="1" parent="1">
          <mxGeometry x="348" y="200" width="120" height="80" as="geometry" />
        </mxCell>
        <mxCell id="RAAd8qCdAdsrlPcri4n8-44" value="FE Tickets -&amp;gt; QA Review" style="shape=note;size=15;align=left;spacingLeft=10;html=1;whiteSpace=wrap;" vertex="1" parent="1">
          <mxGeometry x="23" y="560" width="150" height="40" as="geometry" />
        </mxCell>
        <mxCell id="RAAd8qCdAdsrlPcri4n8-45" value="" style="edgeStyle=none;endArrow=none;dashed=1;html=1;rounded=0;entryX=0.55;entryY=0.95;entryDx=0;entryDy=0;entryPerimeter=0;" edge="1" source="RAAd8qCdAdsrlPcri4n8-44" parent="1" target="RAAd8qCdAdsrlPcri4n8-21">
          <mxGeometry x="1" relative="1" as="geometry">
            <mxPoint x="83" y="520" as="targetPoint" />
          </mxGeometry>
        </mxCell>
        <mxCell id="RAAd8qCdAdsrlPcri4n8-47" value="FE/INT/BE Tickets -&amp;gt; QA Staging" style="shape=note;size=15;align=left;spacingLeft=10;html=1;whiteSpace=wrap;" vertex="1" parent="1">
          <mxGeometry x="338" y="290" width="150" height="40" as="geometry" />
        </mxCell>
        <mxCell id="RAAd8qCdAdsrlPcri4n8-50" value="" style="edgeStyle=none;endArrow=none;exitX=0.5;exitY=0;dashed=1;html=1;rounded=0;entryX=0.55;entryY=0.95;entryDx=0;entryDy=0;entryPerimeter=0;exitDx=0;exitDy=0;exitPerimeter=0;" edge="1" parent="1" source="RAAd8qCdAdsrlPcri4n8-47" target="RAAd8qCdAdsrlPcri4n8-42">
          <mxGeometry x="1" relative="1" as="geometry">
            <mxPoint x="338" y="250" as="targetPoint" />
            <mxPoint x="361" y="304.5" as="sourcePoint" />
          </mxGeometry>
        </mxCell>
        <mxCell id="RAAd8qCdAdsrlPcri4n8-52" value="Generate Migration File" style="shape=note;size=15;align=left;spacingLeft=10;html=1;whiteSpace=wrap;" vertex="1" parent="1">
          <mxGeometry x="698" y="440" width="135" height="40" as="geometry" />
        </mxCell>
        <mxCell id="RAAd8qCdAdsrlPcri4n8-53" value="" style="endArrow=classic;html=1;rounded=0;exitX=0.5;exitY=0;exitDx=0;exitDy=0;" edge="1" parent="1" source="RAAd8qCdAdsrlPcri4n8-24">
          <mxGeometry width="50" height="50" relative="1" as="geometry">
            <mxPoint x="878" y="460" as="sourcePoint" />
            <mxPoint x="838" y="468" as="targetPoint" />
            <Array as="points">
              <mxPoint x="938" y="468" />
            </Array>
          </mxGeometry>
        </mxCell>
        <mxCell id="RAAd8qCdAdsrlPcri4n8-54" value="" style="endArrow=classic;html=1;rounded=0;exitX=0;exitY=0.5;exitDx=0;exitDy=0;exitPerimeter=0;entryX=0.5;entryY=1;entryDx=0;entryDy=0;entryPerimeter=0;" edge="1" parent="1" source="RAAd8qCdAdsrlPcri4n8-52" target="RAAd8qCdAdsrlPcri4n8-16">
          <mxGeometry width="50" height="50" relative="1" as="geometry">
            <mxPoint x="588" y="490" as="sourcePoint" />
            <mxPoint x="578" y="460" as="targetPoint" />
            <Array as="points">
              <mxPoint x="578" y="460" />
            </Array>
          </mxGeometry>
        </mxCell>
        <mxCell id="RAAd8qCdAdsrlPcri4n8-55" value="staging-content-models.json" style="whiteSpace=wrap;html=1;shape=mxgraph.basic.document" vertex="1" parent="1">
          <mxGeometry x="688" y="155" width="70" height="70" as="geometry" />
        </mxCell>
        <mxCell id="RAAd8qCdAdsrlPcri4n8-56" value="" style="endArrow=classic;html=1;rounded=0;exitX=0;exitY=0.5;exitDx=0;exitDy=0;exitPerimeter=0;entryX=1;entryY=0.5;entryDx=0;entryDy=0;entryPerimeter=0;" edge="1" parent="1" source="RAAd8qCdAdsrlPcri4n8-55" target="RAAd8qCdAdsrlPcri4n8-14">
          <mxGeometry width="50" height="50" relative="1" as="geometry">
            <mxPoint x="588" y="130" as="sourcePoint" />
            <mxPoint x="638" y="80" as="targetPoint" />
          </mxGeometry>
        </mxCell>
      </root>
    </mxGraphModel>
  </diagram>
</mxfile>
